<svg xmlns="http://www.w3.org/2000/svg" viewBox="0 0 1600 1000" role="img" aria-labelledby="title desc">
  <title id="title">Northline Studio case study</title><desc id="desc">An editorial architecture project page combining plans, material notes, and project text.</desc>
  <rect width="1600" height="1000" fill="#e8e2d8"/><text x="55" y="65" fill="#171719" font-family="system-ui" font-size="22" font-weight="700">NORTHLINE / 04</text><line x1="55" y1="95" x2="1545" y2="95" stroke="#77716b"/>
  <text x="55" y="190" fill="#171719" font-family="Georgia,serif" font-size="66">House for a<br/>Northern Light</text><text x="960" y="155" fill="#555159" font-family="monospace" font-size="14">52.817° N / 73.103° E</text><text x="960" y="205" fill="#171719" font-family="system-ui" font-size="20">A low house arranged around winter sun,<br/>shelter, and a single warm courtyard.</text>
  <rect x="55" y="320" width="900" height="560" fill="#242327"/><path d="M145 750L340 430 535 750ZM535 750L720 375 900 750Z" fill="#bbb5ab"/><rect x="620" y="570" width="335" height="310" fill="#74716d"/><circle cx="770" cy="450" r="55" fill="#8b8cff"/>
  <g transform="translate(1005 320)" stroke="#171719" fill="none"><rect width="540" height="300"/><path d="M35 35h470v230H35zM185 35v230M350 35v230M35 145h470"/><path d="M85 95h55M390 210h80" stroke-width="7"/></g><text x="1005" y="665" fill="#171719" font-family="monospace" font-size="14">GROUND PLAN / 1:200</text><text x="1005" y="735" fill="#555159" font-family="system-ui" font-size="18">Burnished concrete<br/>Local pine<br/>Recycled aluminium</text><line x1="1005" y1="830" x2="1545" y2="830" stroke="#77716b"/><text x="1005" y="875" fill="#171719" font-family="monospace" font-size="14">MATERIAL REGISTER ↗</text>
</svg>
